<svg width="1107" height="197" xmlns="http://www.w3.org/2000/svg" xmlns:xlink="http://www.w3.org/1999/xlink" overflow="hidden"><defs><clipPath id="clip0"><rect x="53" y="246" width="1107" height="197"/></clipPath><linearGradient x1="336.285" y1="504.696" x2="182.715" y2="184.304" gradientUnits="userSpaceOnUse" spreadMethod="reflect" id="fill1"><stop offset="0" stop-color="#FCD200"/><stop offset="0.5" stop-color="#FCD200"/><stop offset="1" stop-color="#FFEC66"/></linearGradient></defs><g clip-path="url(#clip0)" transform="translate(-53 -246)"><path d="M256.241 321.956C261.828 325.674 267.462 328.506 272.15 332.255L287.143 342.57 273.997 259.1 92.3683 265.681 108.309 271.298C121.393 276.914 135.455 281.613 149.471 286.296 118.583 306.008 87.6809 327.588 73.6653 351.065 85.8339 321.022 89.5434 309.789 118.583 283.511 98.0025 275.078 76.4591 266.63 54 257.233L286.181 246 297.372 359.513 255.247 334.2C253.385 333.235 234.651 339.816 229.063 341.715 200.954 353.881 136.34 381.092 120.462 411.136 102.659 445.831 430.357 408.32 465 403.637 301.143 432.699 162.617 448.647 101.712 441.163 35.266 432.637 56.8093 398.891 256.241 321.956L256.241 321.956Z" fill="url(#fill1)" fill-rule="evenodd"/><path d="M1120.33 387.793 1114.75 401.793 1125.87 401.793ZM912.298 387.793 906.715 401.793 917.841 401.793ZM875.776 386.737 875.776 397.296 883.324 397.296C885.133 397.296 886.548 396.833 887.57 395.908 888.592 394.982 889.103 393.685 889.103 392.017 889.103 390.348 888.592 389.051 887.57 388.126 886.548 387.2 885.133 386.737 883.324 386.737ZM809.861 386.425C806.795 386.425 804.266 387.513 802.274 389.69 800.282 391.867 799.286 394.637 799.286 398 799.286 401.363 800.282 404.133 802.274 406.31 804.266 408.487 806.795 409.575 809.861 409.575 812.954 409.575 815.496 408.487 817.488 406.31 819.48 404.133 820.476 401.363 820.476 398 820.476 394.637 819.48 391.867 817.488 389.69 815.496 387.513 812.954 386.425 809.861 386.425ZM608.382 386.425C605.316 386.425 602.787 387.513 600.795 389.69 598.803 391.867 597.807 394.637 597.807 398 597.807 401.363 598.803 404.133 600.795 406.31 602.787 408.487 605.316 409.575 608.382 409.575 611.475 409.575 614.017 408.487 616.009 406.31 618.001 404.133 618.997 401.363 618.997 398 618.997 394.637 618.001 391.867 616.009 389.69 614.017 387.513 611.475 386.425 608.382 386.425ZM1141.78 384.313 1158.57 384.313 1158.57 386.737 1144.41 386.737 1144.41 395.888 1156.01 395.888 1156.01 398.313 1144.41 398.313 1144.41 409.263 1159 409.263 1159 411.687 1141.78 411.687ZM1119.15 384.313 1121.47 384.313 1132.56 411.687 1129.8 411.687 1126.86 404.218 1113.76 404.218 1110.78 411.687 1108.06 411.687ZM1077.9 384.313 1080.57 384.313 1080.57 402.732C1080.57 404.791 1081.26 406.447 1082.63 407.698 1084.01 408.95 1085.84 409.575 1088.12 409.575 1090.43 409.575 1092.27 408.956 1093.64 407.718 1095.02 406.479 1095.71 404.818 1095.71 402.732L1095.71 384.313 1098.34 384.313 1098.34 402.497C1098.34 405.365 1097.41 407.666 1095.55 409.399 1093.69 411.133 1091.21 412 1088.12 412 1085.03 412 1082.55 411.133 1080.69 409.399 1078.83 407.666 1077.9 405.365 1077.9 402.497ZM1028.76 384.313 1031.94 384.313 1047 407.581 1047 384.313 1049.67 384.313 1049.67 411.687 1046.49 411.687 1031.43 388.497 1031.43 411.687 1028.76 411.687ZM1014.01 384.313 1016.65 384.313 1016.65 411.687 1014.01 411.687ZM963.719 384.313 966.825 384.313 974.884 397.648 982.904 384.313 986.049 384.313 976.181 400.19 976.181 411.687 973.547 411.687 973.547 400.19ZM933.75 384.313 936.934 384.313 951.991 407.581 951.991 384.313 954.664 384.313 954.664 411.687 951.48 411.687 936.423 388.497 936.423 411.687 933.75 411.687ZM911.118 384.313 913.438 384.313 924.524 411.687 921.772 411.687 918.824 404.218 905.733 404.218 902.745 411.687 900.032 411.687ZM873.142 384.313 883.245 384.313C885.866 384.313 887.957 385.017 889.516 386.425 891.075 387.832 891.855 389.697 891.855 392.017 891.855 394.337 891.075 396.201 889.516 397.609 887.957 399.017 885.866 399.721 883.245 399.721L875.776 399.721 875.776 411.687 873.142 411.687ZM833.829 384.313 837.249 384.313 846.999 407.816 856.749 384.313 860.169 384.313 860.169 411.687 857.456 411.687 857.456 389.318 848.218 411.687 845.78 411.687 836.542 389.318 836.542 411.687 833.829 411.687ZM678.215 384.313 681.399 384.313 696.456 407.581 696.456 384.313 699.13 384.313 699.13 411.687 695.945 411.687 680.888 388.497 680.888 411.687 678.215 411.687ZM663.473 384.313 666.107 384.313 666.107 411.687 663.473 411.687ZM629.755 384.313 632.468 384.313 641.667 408.793 650.906 384.313 653.618 384.313 643.082 411.687 640.291 411.687ZM557 384.313 560.42 384.313 570.17 407.816 579.919 384.313 583.34 384.313 583.34 411.687 580.627 411.687 580.627 389.318 571.389 411.687 568.951 411.687 559.713 389.318 559.713 411.687 557 411.687ZM809.861 384C813.74 384 816.938 385.317 819.454 387.95 821.97 390.583 823.228 393.933 823.228 398 823.228 402.067 821.97 405.417 819.454 408.05 816.938 410.683 813.74 412 809.861 412 805.982 412 802.791 410.683 800.289 408.05 797.786 405.417 796.534 402.067 796.534 398 796.534 393.933 797.786 390.583 800.289 387.95 802.791 385.317 805.982 384 809.861 384ZM775.305 384C778.162 384 780.599 384.756 782.617 386.268 784.635 387.78 785.972 389.827 786.627 392.408L784.033 392.994C783.561 390.909 782.565 389.292 781.045 388.145 779.525 386.998 777.612 386.425 775.305 386.425 772.186 386.425 769.67 387.441 767.757 389.475 765.844 391.508 764.887 394.35 764.887 398 764.887 401.65 765.844 404.492 767.757 406.525 769.67 408.559 772.186 409.575 775.305 409.575 777.612 409.575 779.505 409.021 780.986 407.913 782.467 406.805 783.482 405.209 784.033 403.123L786.627 403.631C785.92 406.212 784.563 408.252 782.558 409.751 780.553 411.25 778.136 412 775.305 412 773.575 412 771.937 411.707 770.391 411.12 768.845 410.533 767.449 409.686 766.204 408.578 764.959 407.47 763.97 406.004 763.236 404.179 762.502 402.354 762.135 400.294 762.135 398 762.135 395.706 762.502 393.646 763.236 391.821 763.97 389.996 764.966 388.53 766.224 387.422 767.482 386.314 768.884 385.467 770.43 384.88 771.977 384.293 773.602 384 775.305 384ZM722.809 384C725.718 384 728.208 384.763 730.279 386.288 732.349 387.813 733.66 389.84 734.21 392.369L731.615 392.955C731.196 390.896 730.213 389.292 728.667 388.145 727.12 386.998 725.168 386.425 722.809 386.425 719.743 386.425 717.26 387.441 715.359 389.475 713.459 391.508 712.509 394.35 712.509 398 712.509 401.65 713.459 404.492 715.359 406.525 717.26 408.559 719.743 409.575 722.809 409.575 725.613 409.575 727.841 408.715 729.492 406.994 731.144 405.274 731.982 403.032 732.008 400.268L721.63 400.268 721.63 397.844 734.524 397.844 734.524 411.687 732.166 411.687 732.166 406.955C731.51 408.493 730.324 409.719 728.608 410.631 726.891 411.544 724.971 412 722.848 412 720.516 412 718.38 411.498 716.44 410.494 714.501 409.491 712.896 407.907 711.625 405.743 710.353 403.579 709.718 400.998 709.718 398 709.718 395.002 710.353 392.421 711.625 390.257 712.896 388.093 714.501 386.509 716.44 385.506 718.38 384.502 720.503 384 722.809 384ZM608.382 384C612.261 384 615.458 385.317 617.974 387.95 620.49 390.583 621.748 393.933 621.748 398 621.748 402.067 620.49 405.417 617.974 408.05 615.458 410.683 612.261 412 608.382 412 604.503 412 601.312 410.683 598.809 408.05 596.306 405.417 595.055 402.067 595.055 398 595.055 393.933 596.306 390.583 598.809 387.95 601.312 385.317 604.503 384 608.382 384Z" fill="#F2F2F2" fill-rule="evenodd"/><path d="M700.691 314.225 694.509 332.149 706.97 332.149ZM564.797 314.225 558.615 332.149 571.076 332.149ZM410.893 314.225 404.71 332.149 417.172 332.149ZM1063.36 306.419 1063.36 319.332 1070.51 319.332C1073.15 319.332 1075.18 318.77 1076.6 317.646 1078.02 316.522 1078.72 314.932 1078.72 312.876 1078.72 310.82 1078.02 309.23 1076.6 308.105 1075.18 306.981 1073.15 306.419 1070.51 306.419ZM880.034 305.648C874.818 305.648 870.519 307.527 867.138 311.286 863.757 315.044 862.066 319.782 862.066 325.5 862.066 331.218 863.757 335.956 867.138 339.714 870.519 343.473 874.818 345.352 880.034 345.352 885.25 345.352 889.533 343.473 892.882 339.714 896.23 335.956 897.905 331.218 897.905 325.5 897.905 319.782 896.23 315.044 892.882 311.286 889.533 307.527 885.25 305.648 880.034 305.648ZM1045.88 291.771 1073.6 291.771C1080.37 291.771 1085.78 293.682 1089.83 297.505 1093.89 301.328 1095.92 306.451 1095.92 312.876 1095.92 316.409 1095.13 319.686 1093.55 322.705 1091.97 325.725 1089.77 328.198 1086.94 330.126L1103.65 359.229 1083.36 359.229 1069.84 333.98 1063.36 333.98 1063.36 359.229 1046.07 359.229ZM988.576 291.771 1036.2 291.771 1036.2 306.419 1005.87 306.419 1005.87 316.441 1029.73 316.441 1029.73 331.089 1005.87 331.089 1005.87 344.581 1037.26 344.581 1037.26 359.229 988.576 359.229ZM917.772 291.771 935.353 291.771 949.746 338.413 964.333 291.771 981.817 291.771 957.957 359.229 941.632 359.229ZM760.994 291.771 779.734 291.771 798.378 334.944 817.021 291.771 835.665 291.771 835.665 359.229 819.823 359.229 819.823 323.573 804.464 359.229 792.292 359.229 776.836 323.573 776.836 359.229 760.994 359.229ZM692.48 291.771 708.902 291.771 734.115 359.229 716.34 359.229 711.897 346.412 689.582 346.412 685.139 359.229 667.268 359.229ZM603.815 291.771 620.623 291.771 644.483 332.053 644.483 291.771 660.422 291.771 660.422 359.229 643.614 359.229 619.754 318.947 619.754 359.229 603.815 359.229ZM556.586 291.771 573.008 291.771 598.22 359.229 580.446 359.229 576.003 346.412 553.688 346.412 549.245 359.229 531.374 359.229ZM449.911 291.771 468.651 291.771 487.295 334.944 505.938 291.771 524.582 291.771 524.582 359.229 508.74 359.229 508.74 323.573 493.381 359.229 481.209 359.229 465.753 323.573 465.753 359.229 449.911 359.229ZM402.682 291.771 419.104 291.771 444.316 359.229 426.542 359.229 422.098 346.412 399.784 346.412 395.34 359.229 377.469 359.229ZM1132.44 291C1139.07 291 1144.85 292.606 1149.77 295.818 1154.7 299.031 1157.78 303.239 1159 308.443L1143.54 314.899C1142.84 312.008 1141.52 309.712 1139.58 308.009 1137.65 306.307 1135.27 305.455 1132.44 305.455 1130.25 305.455 1128.52 305.889 1127.27 306.756 1126.01 307.624 1125.38 308.796 1125.38 310.274 1125.38 311.687 1126.22 312.844 1127.9 313.743 1129.57 314.642 1131.65 315.301 1134.13 315.718 1136.6 316.136 1139.29 316.827 1142.19 317.79 1145.09 318.754 1147.78 319.943 1150.26 321.356 1152.74 322.77 1154.81 325.002 1156.49 328.054 1158.16 331.105 1159 334.784 1159 339.088 1159 345.32 1156.57 350.363 1151.71 354.218 1146.84 358.073 1140.45 360 1132.53 360 1125.71 360 1119.73 357.912 1114.61 353.736 1109.49 349.56 1106.71 344.42 1106.26 338.317L1121.13 333.98C1121.46 337.321 1122.81 340.084 1125.19 342.268 1127.57 344.453 1130.28 345.545 1133.3 345.545 1135.82 345.545 1137.84 344.999 1139.39 343.906 1140.94 342.814 1141.71 341.369 1141.71 339.57 1141.71 338.092 1141.1 336.839 1139.87 335.811 1138.65 334.784 1137.06 333.948 1135.09 333.306 1133.13 332.663 1130.94 332.021 1128.52 331.378 1126.11 330.736 1123.71 329.901 1121.33 328.873 1118.94 327.845 1116.77 326.624 1114.81 325.211 1112.84 323.798 1111.25 321.822 1110.02 319.284 1108.8 316.747 1108.19 313.775 1108.19 310.37 1108.19 304.845 1110.56 300.235 1115.29 296.541 1120.02 292.847 1125.74 291 1132.44 291ZM880.13 291C890.177 291 898.517 294.277 905.15 300.83 911.783 307.383 915.099 315.606 915.099 325.5 915.099 335.394 911.783 343.617 905.15 350.17 898.517 356.723 890.177 360 880.13 360 869.955 360 861.535 356.723 854.87 350.17 848.204 343.617 844.872 335.394 844.872 325.5 844.872 315.606 848.204 307.383 854.87 300.83 861.535 294.277 869.955 291 880.13 291ZM348.178 291C354.812 291 360.591 292.606 365.518 295.818 370.445 299.031 373.52 303.239 374.743 308.443L359.287 314.899C358.579 312.008 357.259 309.712 355.327 308.009 353.395 306.307 351.012 305.455 348.178 305.455 345.989 305.455 344.266 305.889 343.01 306.756 341.755 307.624 341.127 308.796 341.127 310.274 341.127 311.687 341.964 312.844 343.638 313.743 345.313 314.642 347.389 315.301 349.869 315.718 352.348 316.136 355.037 316.827 357.935 317.79 360.833 318.754 363.522 319.943 366.001 321.356 368.48 322.77 370.557 325.002 372.232 328.054 373.906 331.105 374.743 334.784 374.743 339.088 374.743 345.32 372.312 350.363 367.45 354.218 362.588 358.073 356.196 360 348.275 360 341.449 360 335.476 357.912 330.356 353.736 325.236 349.56 322.451 344.42 322 338.317L336.876 333.98C337.198 337.321 338.551 340.084 340.933 342.268 343.316 344.453 346.021 345.545 349.048 345.545 351.559 345.545 353.588 344.999 355.134 343.906 356.679 342.814 357.452 341.369 357.452 339.57 357.452 338.092 356.84 336.839 355.617 335.811 354.393 334.784 352.799 333.948 350.835 333.306 348.871 332.663 346.681 332.021 344.266 331.378 341.851 330.736 339.452 329.901 337.07 328.873 334.687 327.845 332.513 326.624 330.549 325.211 328.585 323.798 326.991 321.822 325.767 319.284 324.544 316.747 323.932 313.775 323.932 310.37 323.932 304.845 326.299 300.235 331.032 296.541 335.765 292.847 341.481 291 348.178 291Z" fill="#F2F2F2" fill-rule="evenodd"/></g></svg>