<svg overflow="hidden" xmlns:xlink="http://www.w3.org/1999/xlink" xmlns="http://www.w3.org/2000/svg" viewBox="0 0 1120 208.9385474860335" style="max-height: 500px" width="1120" height="208.9385474860335"><g transform="translate(-80 -260)"><path fillRule="evenodd" fill="#FCD200" d="M285.701 337.341C291.357 341.078 297.059 343.924 301.804 347.693L316.979 358.06 303.673 274.167 119.835 280.781 135.969 286.426C149.213 292.071 163.446 296.794 177.632 301.501 146.369 321.313 115.091 343.002 100.904 366.598 113.221 336.403 116.976 325.113 146.369 298.701 125.538 290.226 103.732 281.735 81 272.29L316.006 261 327.332 375.089 284.696 349.648C282.81 348.678 263.848 355.293 258.193 357.2 229.742 369.429 164.341 396.778 148.27 426.974 130.251 461.845 461.935 424.143 497 419.437 331.15 448.647 190.938 464.675 129.292 457.154 62.0381 448.585 83.8435 414.667 285.701 337.341L285.701 337.341Z"/><path fillRule="evenodd" fill="#595959" d="M1159.88 403.793 1154.23 417.793 1165.49 417.793ZM949.429 403.793 943.782 417.793 955.037 417.793ZM912.483 402.737 912.483 413.296 920.119 413.296C921.948 413.296 923.38 412.833 924.414 411.908 925.448 410.982 925.965 409.685 925.965 408.017 925.965 406.348 925.448 405.051 924.414 404.126 923.38 403.2 921.948 402.737 920.119 402.737ZM845.802 402.425C842.699 402.425 840.141 403.513 838.126 405.69 836.111 407.867 835.103 410.637 835.103 414 835.103 417.363 836.111 420.133 838.126 422.31 840.141 424.487 842.699 425.575 845.802 425.575 848.93 425.575 851.502 424.487 853.517 422.31 855.532 420.133 856.539 417.363 856.539 414 856.539 410.637 855.532 407.867 853.517 405.69 851.502 403.513 848.93 402.425 845.802 402.425ZM641.98 402.425C638.877 402.425 636.319 403.513 634.304 405.69 632.289 407.867 631.281 410.637 631.281 414 631.281 417.363 632.289 420.133 634.304 422.31 636.319 424.487 638.877 425.575 641.98 425.575 645.108 425.575 647.68 424.487 649.695 422.31 651.71 420.133 652.717 417.363 652.717 414 652.717 410.637 651.71 407.867 649.695 405.69 647.68 403.513 645.108 402.425 641.98 402.425ZM1181.58 400.313 1198.56 400.313 1198.56 402.737 1184.25 402.737 1184.25 411.888 1195.98 411.888 1195.98 414.313 1184.25 414.313 1184.25 425.263 1199 425.263 1199 427.687 1181.58 427.687ZM1158.69 400.313 1161.03 400.313 1172.25 427.687 1169.46 427.687 1166.48 420.218 1153.24 420.218 1150.22 427.687 1147.47 427.687ZM1116.95 400.313 1119.66 400.313 1119.66 418.732C1119.66 420.791 1120.35 422.447 1121.75 423.698 1123.14 424.95 1124.99 425.575 1127.29 425.575 1129.63 425.575 1131.49 424.956 1132.88 423.718 1134.27 422.479 1134.97 420.818 1134.97 418.732L1134.97 400.313 1137.63 400.313 1137.63 418.497C1137.63 421.365 1136.69 423.666 1134.81 425.399 1132.93 427.133 1130.42 428 1127.29 428 1124.17 428 1121.66 427.133 1119.78 425.399 1117.9 423.666 1116.95 421.365 1116.95 418.497ZM1067.24 400.313 1070.46 400.313 1085.69 423.581 1085.69 400.313 1088.4 400.313 1088.4 427.687 1085.18 427.687 1069.95 404.497 1069.95 427.687 1067.24 427.687ZM1052.33 400.313 1054.99 400.313 1054.99 427.687 1052.33 427.687ZM1001.45 400.313 1004.59 400.313 1012.74 413.648 1020.86 400.313 1024.04 400.313 1014.06 416.19 1014.06 427.687 1011.39 427.687 1011.39 416.19ZM971.13 400.313 974.352 400.313 989.584 423.581 989.584 400.313 992.288 400.313 992.288 427.687 989.067 427.687 973.835 404.497 973.835 427.687 971.13 427.687ZM948.236 400.313 950.583 400.313 961.798 427.687 959.014 427.687 956.031 420.218 942.788 420.218 939.765 427.687 937.021 427.687ZM909.818 400.313 920.039 400.313C922.69 400.313 924.805 401.017 926.382 402.425 927.96 403.832 928.749 405.697 928.749 408.017 928.749 410.337 927.96 412.201 926.382 413.609 924.805 415.017 922.69 415.721 920.039 415.721L912.483 415.721 912.483 427.687 909.818 427.687ZM870.048 400.313 873.508 400.313 883.371 423.816 893.234 400.313 896.694 400.313 896.694 427.687 893.95 427.687 893.95 405.318 884.604 427.687 882.138 427.687 872.792 405.318 872.792 427.687 870.048 427.687ZM712.625 400.313 715.846 400.313 731.078 423.581 731.078 400.313 733.782 400.313 733.782 427.687 730.561 427.687 715.329 404.497 715.329 427.687 712.625 427.687ZM697.711 400.313 700.375 400.313 700.375 427.687 697.711 427.687ZM663.601 400.313 666.345 400.313 675.652 424.793 684.998 400.313 687.742 400.313 677.083 427.687 674.26 427.687ZM590 400.313 593.46 400.313 603.323 423.816 613.186 400.313 616.646 400.313 616.646 427.687 613.902 427.687 613.902 405.318 604.556 427.687 602.09 427.687 592.744 405.318 592.744 427.687 590 427.687ZM845.802 400C849.725 400 852.96 401.317 855.505 403.95 858.051 406.583 859.323 409.933 859.323 414 859.323 418.067 858.051 421.417 855.505 424.05 852.96 426.683 849.725 428 845.802 428 841.878 428 838.649 426.683 836.117 424.05 833.585 421.417 832.319 418.067 832.319 414 832.319 409.933 833.585 406.583 836.117 403.95 838.649 401.317 841.878 400 845.802 400ZM810.844 400C813.733 400 816.199 400.756 818.241 402.268 820.282 403.78 821.634 405.827 822.297 408.408L819.673 408.994C819.195 406.909 818.188 405.292 816.65 404.145 815.112 402.998 813.177 402.425 810.844 402.425 807.688 402.425 805.143 403.441 803.208 405.475 801.272 407.508 800.305 410.35 800.305 414 800.305 417.65 801.272 420.492 803.208 422.525 805.143 424.559 807.688 425.575 810.844 425.575 813.177 425.575 815.092 425.021 816.59 423.913 818.088 422.805 819.116 421.209 819.673 419.123L822.297 419.631C821.582 422.212 820.209 424.252 818.181 425.751 816.153 427.25 813.707 428 810.844 428 809.094 428 807.437 427.707 805.872 427.12 804.308 426.533 802.896 425.686 801.637 424.578 800.377 423.47 799.377 422.004 798.634 420.179 797.892 418.354 797.521 416.294 797.521 414 797.521 411.706 797.892 409.646 798.634 407.821 799.377 405.996 800.384 404.53 801.657 403.422 802.929 402.314 804.348 401.467 805.912 400.88 807.476 400.293 809.12 400 810.844 400ZM757.737 400C760.68 400 763.199 400.763 765.293 402.288 767.388 403.813 768.714 405.84 769.27 408.369L766.646 408.955C766.221 406.896 765.227 405.292 763.663 404.145 762.099 402.998 760.123 402.425 757.737 402.425 754.635 402.425 752.123 403.441 750.201 405.475 748.279 407.508 747.317 410.35 747.317 414 747.317 417.65 748.279 420.492 750.201 422.525 752.123 424.559 754.635 425.575 757.737 425.575 760.574 425.575 762.828 424.715 764.498 422.994 766.168 421.274 767.017 419.032 767.043 416.268L756.544 416.268 756.544 413.844 769.589 413.844 769.589 427.687 767.202 427.687 767.202 422.955C766.54 424.493 765.34 425.719 763.603 426.631 761.867 427.544 759.924 428 757.777 428 755.417 428 753.256 427.498 751.294 426.494 749.332 425.491 747.708 423.907 746.423 421.743 745.137 419.579 744.494 416.998 744.494 414 744.494 411.002 745.137 408.421 746.423 406.257 747.708 404.093 749.332 402.509 751.294 401.506 753.256 400.502 755.404 400 757.737 400ZM641.98 400C645.904 400 649.138 401.317 651.683 403.95 654.229 406.583 655.501 409.933 655.501 414 655.501 418.067 654.229 421.417 651.683 424.05 649.138 426.683 645.904 428 641.98 428 638.056 428 634.828 426.683 632.296 424.05 629.764 421.417 628.498 418.067 628.498 414 628.498 409.933 629.764 406.583 632.296 403.95 634.828 401.317 638.056 400 641.98 400Z"/><path fillRule="evenodd" fill="#182937" d="M735.216 329.561 728.959 347.746 741.57 347.746ZM597.698 329.561 591.442 347.746 604.052 347.746ZM441.955 329.561 435.699 347.746 448.309 347.746ZM1102.22 321.642 1102.22 334.743 1109.46 334.743C1112.13 334.743 1114.18 334.173 1115.61 333.032 1117.05 331.892 1117.77 330.278 1117.77 328.193 1117.77 326.107 1117.05 324.494 1115.61 323.353 1114.18 322.213 1112.13 321.642 1109.46 321.642ZM916.701 320.86C911.422 320.86 907.072 322.767 903.651 326.58 900.23 330.393 898.519 335.199 898.519 341 898.519 346.801 900.23 351.607 903.651 355.42 907.072 359.233 911.422 361.14 916.701 361.14 921.98 361.14 926.313 359.233 929.702 355.42 933.091 351.607 934.785 346.801 934.785 341 934.785 335.199 933.091 330.393 929.702 326.58 926.313 322.767 921.98 320.86 916.701 320.86ZM1084.53 306.782 1112.58 306.782C1119.43 306.782 1124.9 308.721 1129.01 312.599 1133.11 316.477 1135.17 321.675 1135.17 328.193 1135.17 331.777 1134.37 335.101 1132.77 338.165 1131.17 341.228 1128.94 343.737 1126.07 345.693L1142.99 375.218 1122.46 375.218 1108.77 349.603 1102.22 349.603 1102.22 375.218 1084.72 375.218ZM1026.54 306.782 1074.73 306.782 1074.73 321.642 1044.04 321.642 1044.04 331.81 1068.18 331.81 1068.18 346.67 1044.04 346.67 1044.04 360.358 1075.81 360.358 1075.81 375.218 1026.54 375.218ZM954.889 306.782 972.681 306.782 987.246 354.101 1002.01 306.782 1019.7 306.782 995.555 375.218 979.035 375.218ZM796.239 306.782 815.203 306.782 834.069 350.581 852.936 306.782 871.802 306.782 871.802 375.218 855.771 375.218 855.771 339.045 840.228 375.218 827.911 375.218 812.27 339.045 812.27 375.218 796.239 375.218ZM726.907 306.782 743.525 306.782 769.038 375.218 751.052 375.218 746.555 362.215 723.974 362.215 719.477 375.218 701.393 375.218ZM637.182 306.782 654.191 306.782 678.336 347.648 678.336 306.782 694.466 306.782 694.466 375.218 677.457 375.218 653.311 334.352 653.311 375.218 637.182 375.218ZM589.389 306.782 606.007 306.782 631.521 375.218 613.534 375.218 609.037 362.215 586.456 362.215 581.96 375.218 563.875 375.218ZM481.439 306.782 500.403 306.782 519.27 350.581 538.136 306.782 557.002 306.782 557.002 375.218 540.971 375.218 540.971 339.045 525.428 375.218 513.111 375.218 497.471 339.045 497.471 375.218 481.439 375.218ZM433.646 306.782 450.264 306.782 475.778 375.218 457.791 375.218 453.294 362.215 430.713 362.215 426.216 375.218 408.132 375.218ZM1172.12 306C1178.83 306 1184.68 307.629 1189.66 310.888 1194.65 314.147 1197.76 318.416 1199 323.695L1183.36 330.246C1182.64 327.313 1181.31 324.983 1179.35 323.255 1177.4 321.528 1174.99 320.665 1172.12 320.665 1169.9 320.665 1168.16 321.105 1166.89 321.985 1165.62 322.865 1164.98 324.054 1164.98 325.553 1164.98 326.987 1165.83 328.16 1167.52 329.073 1169.22 329.985 1171.32 330.653 1173.83 331.077 1176.34 331.5 1179.06 332.201 1181.99 333.179 1184.92 334.156 1187.64 335.362 1190.15 336.796 1192.66 338.23 1194.76 340.495 1196.46 343.591 1198.15 346.687 1199 350.418 1199 354.785 1199 361.107 1196.54 366.223 1191.62 370.134 1186.7 374.045 1180.23 376 1172.22 376 1165.31 376 1159.26 373.882 1154.08 369.645 1148.9 365.409 1146.08 360.195 1145.63 354.003L1160.68 349.603C1161.01 352.992 1162.38 355.795 1164.79 358.011 1167.2 360.227 1169.93 361.335 1173 361.335 1175.54 361.335 1177.59 360.781 1179.16 359.673 1180.72 358.565 1181.5 357.099 1181.5 355.274 1181.5 353.775 1180.88 352.504 1179.65 351.461 1178.41 350.418 1176.79 349.571 1174.81 348.919 1172.82 348.267 1170.6 347.615 1168.16 346.964 1165.71 346.312 1163.29 345.465 1160.88 344.422 1158.46 343.379 1156.27 342.141 1154.28 340.707 1152.29 339.273 1150.68 337.269 1149.44 334.694 1148.2 332.12 1147.58 329.105 1147.58 325.651 1147.58 320.046 1149.98 315.369 1154.77 311.621 1159.56 307.874 1165.34 306 1172.12 306ZM916.799 306C926.965 306 935.404 309.324 942.117 315.972 948.829 322.62 952.185 330.963 952.185 341 952.185 351.037 948.829 359.38 942.117 366.028 935.404 372.676 926.965 376 916.799 376 906.502 376 897.981 372.676 891.236 366.028 884.491 359.38 881.119 351.037 881.119 341 881.119 330.963 884.491 322.62 891.236 315.972 897.981 309.324 906.502 306 916.799 306ZM378.491 306C385.204 306 391.053 307.629 396.038 310.888 401.023 314.147 404.135 318.416 405.373 323.695L389.733 330.246C389.016 327.313 387.68 324.983 385.725 323.255 383.77 321.528 381.359 320.665 378.491 320.665 376.275 320.665 374.532 321.105 373.261 321.985 371.991 322.865 371.355 324.054 371.355 325.553 371.355 326.987 372.202 328.16 373.897 329.073 375.591 329.985 377.693 330.653 380.202 331.077 382.711 331.5 385.432 332.201 388.364 333.179 391.297 334.156 394.018 335.362 396.527 336.796 399.036 338.23 401.137 340.495 402.832 343.591 404.526 346.687 405.373 350.418 405.373 354.785 405.373 361.107 402.913 366.223 397.993 370.134 393.073 374.045 386.605 376 378.589 376 371.681 376 365.637 373.882 360.456 369.645 355.275 365.409 352.456 360.195 352 354.003L367.054 349.603C367.38 352.992 368.748 355.795 371.16 358.011 373.571 360.227 376.308 361.335 379.371 361.335 381.913 361.335 383.965 360.781 385.529 359.673 387.094 358.565 387.876 357.099 387.876 355.274 387.876 353.775 387.256 352.504 386.018 351.461 384.78 350.418 383.167 349.571 381.179 348.919 379.192 348.267 376.976 347.615 374.532 346.964 372.088 346.312 369.661 345.465 367.25 344.422 364.838 343.379 362.639 342.141 360.651 340.707 358.664 339.273 357.051 337.269 355.812 334.694 354.574 332.12 353.955 329.105 353.955 325.651 353.955 320.046 356.35 315.369 361.14 311.621 365.93 307.874 371.714 306 378.491 306Z"/></g></svg>